<?xml version="1.0" encoding="UTF-8" standalone="no"?>

<!-- ####################################################################

This file was generates automatically via the 
IconPacks.Browser (MIT-License). 

Visit https://github.com/MahApps/MahApps.Metro.IconPacks and 
https://github.com/MahApps/MahApps.Metro.IconPacks/blob/develop/LICENSE 
for more information.
 
~~~~~~~~~~~~~~~~~~~~~~~~~~~~~~~~~~~~~~~~~~~~~~~~~~~~~~~~~~~~~~~~~~~~~~~~~~
 
Icon-Name: 			Camera
Iconpack:			Fontisto
Iconpack-Homepage: 	https://github.com/kenangundogan/fontisto
Iconpack-License:	https://github.com/kenangundogan/fontisto?tab=readme-ov-file#license

#####################################################################-->


<svg xmlns="http://www.w3.org/2000/svg"
     width="16"
     height="16">
    <path d="M590.78 525.142c97.826-0.155 177.084-79.426 177.22-177.241v-0.013c0-0.047 0-0.102 0-0.157 0-97.876-79.344-177.22-177.22-177.22s-177.22 79.344-177.22 177.22c0 48.977 19.868 93.314 51.983 125.39l0.002 0.002c31.072 32.107 74.557 52.038 122.696 52.038 0.893 0 1.784-0.007 2.673-0.021l-0.134 0.002zM1024 781.142c0.703 0.012 1.532 0.018 2.363 0.018 42.759 0 81.388-17.68 108.976-46.128l0.037-0.039c28.487-27.626 46.167-66.255 46.167-109.014 0-0.831-0.007-1.66-0.020-2.488l0.002 0.125v-551.424c-0.039-86.983-70.542-157.486-157.522-157.525h-866.478c-86.983 0.039-157.486 70.542-157.525 157.522v551.394c-0.012 0.703-0.018 1.532-0.018 2.363 0 42.759 17.68 81.388 46.128 108.976l0.039 0.037c27.626 28.487 66.255 46.167 109.014 46.167 0.831 0 1.66-0.007 2.488-0.020l-0.125 0.002h137.83l31.369 83.695c9.024 21.622 23.782 39.346 42.386 51.757l0.417 0.262c17.555 13.26 39.632 21.397 63.589 21.844l0.104 0.002h315.085c24.061-0.449 46.138-8.585 63.97-22.046l-0.277 0.2c19.003-12.669 33.749-30.38 42.489-51.231l0.28-0.754 31.369-83.695zM590.78 72.192c1.153-0.018 2.513-0.028 3.876-0.028 74.894 0 142.547 31.008 190.819 80.886l0.070 0.072c49.951 48.342 80.958 115.994 80.958 190.888 0 1.363-0.010 2.724-0.031 4.082l0.002-0.205c0.019 1.173 0.029 2.557 0.029 3.944 0 74.895-31.008 142.547-80.887 190.82l-0.072 0.070c-49.778 49.989-118.659 80.923-194.765 80.923s-144.987-30.933-194.755-80.913l-0.009-0.009c-49.951-48.342-80.958-115.994-80.958-190.888 0-1.363 0.010-2.724 0.031-4.082l-0.002 0.205c-0.019-1.192-0.030-2.599-0.030-4.009 0-74.862 30.981-142.488 80.822-190.756l0.071-0.068c48.342-49.951 115.995-80.959 190.889-80.959 1.387 0 2.771 0.011 4.152 0.032l-0.209-0.003z"
          style="fill:#000000;
                 stroke:none
                 stroke-width:0;
                 stroke-linecap:flat;
                 stroke-linejoin:miter;"
          transform="matrix(0.0135414087154023,0,0,-0.0135414087154023,0.000243745346384541,13.7776792035057)" />
</svg>